<svg xmlns="http://www.w3.org/2000/svg" width="1700" height="81" viewBox="0 0 1700 81">
  <g id="Group_11" data-name="Group 11" transform="translate(-133 -350)">
    <g id="Rectangle_7" data-name="Rectangle 7" transform="translate(133 350)" fill="#fff" stroke="#707070" stroke-width="1">
      <rect width="1700" height="81" rx="31" stroke="none"/>
      <rect x="0.5" y="0.5" width="1699" height="80" rx="30.5" fill="none"/>
    </g>
    <text id="Electrodomésticos" transform="translate(160 397)" font-size="24" font-family="MyriadPro-Light, Myriad Pro" font-weight="300"><tspan x="0" y="0">Electrodomésticos</tspan></text>
    <text id="Ventas_de_electro_" data-name="Ventas de electro……" transform="translate(428 398)" font-size="24" font-family="MyriadPro-Light, Myriad Pro" font-weight="300"><tspan x="0" y="0">Ventas de electro……</tspan></text>
    <text id="Media" transform="translate(706 397)" font-size="24" font-family="MyriadPro-Light, Myriad Pro" font-weight="300"><tspan x="0" y="0">Media</tspan></text>
    <text id="_12_04_21" data-name="12/04/21" transform="translate(842 397)" font-size="24" font-family="MyriadPro-Light, Myriad Pro" font-weight="300"><tspan x="0" y="0">12/04/21</tspan></text>
    <text id="_12_09_21" data-name="12/09/21" transform="translate(1066 397)" font-size="24" font-family="MyriadPro-Light, Myriad Pro" font-weight="300"><tspan x="0" y="0">12/09/21</tspan></text>
    <text id="N_A" data-name="N/A" transform="translate(1277 397)" font-size="24" font-family="MyriadPro-Light, Myriad Pro" font-weight="300"><tspan x="0" y="0">N/A</tspan></text>
    <text id="_1_3" data-name="1/3" transform="translate(1415 397)" font-size="24" font-family="MyriadPro-Light, Myriad Pro" font-weight="300"><tspan x="0" y="0">1/3</tspan></text>
    <path id="Icon_awesome-circle-notch" data-name="Icon awesome-circle-notch" d="M34.436,3.964V5.98a2.9,2.9,0,0,0,2.14,2.79,22.26,22.26,0,1,1-12.022,0,2.9,2.9,0,0,0,2.14-2.791V3.965a2.906,2.906,0,0,0-3.635-2.811A30,30,0,1,0,38.04,1.147,2.9,2.9,0,0,0,34.436,3.964Z" transform="translate(1565.435 359.866)" fill="red"/>
    <text id="_32_" data-name="32%" transform="translate(1578.667 396.094)" font-size="20" font-family="MyriadPro-Light, Myriad Pro" font-weight="300"><tspan x="0" y="0">32%</tspan></text>
    <text id="Gerencia" transform="translate(1703 397)" font-size="24" font-family="MyriadPro-Light, Myriad Pro" font-weight="300"><tspan x="0" y="0">Gerencia</tspan></text>
  </g>
</svg>
