<svg xmlns="http://www.w3.org/2000/svg" width="1700" height="81" viewBox="0 0 1700 81">
  <g id="Group_12" data-name="Group 12" transform="translate(-133 -350)">
    <g id="Rectangle_7" data-name="Rectangle 7" transform="translate(133 350)" fill="#fff" stroke="#707070" stroke-width="1">
      <rect width="1700" height="81" rx="31" stroke="none"/>
      <rect x="0.5" y="0.5" width="1699" height="80" rx="30.5" fill="none"/>
    </g>
    <text id="Finca_Galeón" data-name="Finca Galeón" transform="translate(160 397)" font-size="24" font-family="MyriadPro-Light, Myriad Pro" font-weight="300"><tspan x="0" y="0">Finca Galeón</tspan></text>
    <text id="Diseño_de_maque_." data-name="Diseño de maque……." transform="translate(428 398)" font-size="24" font-family="MyriadPro-Light, Myriad Pro" font-weight="300"><tspan x="0" y="0">Diseño de maque…….</tspan></text>
    <text id="Baja" transform="translate(706 397)" font-size="24" font-family="MyriadPro-Light, Myriad Pro" font-weight="300"><tspan x="0" y="0">Baja</tspan></text>
    <text id="_12_04_21" data-name="12/04/21" transform="translate(842 397)" font-size="24" font-family="MyriadPro-Light, Myriad Pro" font-weight="300"><tspan x="0" y="0">12/04/21</tspan></text>
    <text id="_12_05_21" data-name="12/05/21" transform="translate(1066 397)" font-size="24" font-family="MyriadPro-Light, Myriad Pro" font-weight="300"><tspan x="0" y="0">12/05/21</tspan></text>
    <text id="Met.Ágil" transform="translate(1254 397)" font-size="24" font-family="MyriadPro-Light, Myriad Pro" font-weight="300"><tspan x="0" y="0">Met.Ágil</tspan></text>
    <text id="_1_4" data-name="1/4" transform="translate(1415 397)" font-size="24" font-family="MyriadPro-Light, Myriad Pro" font-weight="300"><tspan x="0" y="0">1/4</tspan></text>
    <path id="Icon_awesome-circle-notch" data-name="Icon awesome-circle-notch" d="M34.436,3.964V5.98a2.9,2.9,0,0,0,2.14,2.79,22.26,22.26,0,1,1-12.022,0,2.9,2.9,0,0,0,2.14-2.791V3.965a2.906,2.906,0,0,0-3.635-2.811A30,30,0,1,0,38.04,1.147,2.9,2.9,0,0,0,34.436,3.964Z" transform="translate(1565.435 359.866)" fill="#f01"/>
    <text id="_25_" data-name="25%" transform="translate(1578.667 396.094)" font-size="20" font-family="MyriadPro-Light, Myriad Pro" font-weight="300"><tspan x="0" y="0">25%</tspan></text>
    <text id="Diseño" transform="translate(1712 395)" font-size="24" font-family="MyriadPro-Light, Myriad Pro" font-weight="300"><tspan x="0" y="0">Diseño</tspan></text>
  </g>
</svg>
