<svg xmlns="http://www.w3.org/2000/svg" width="1700" height="81" viewBox="0 0 1700 81">
  <g id="Group_9" data-name="Group 9" transform="translate(-133 -350)">
    <g id="Rectangle_7" data-name="Rectangle 7" transform="translate(133 350)" fill="#fff" stroke="#707070" stroke-width="1">
      <rect width="1700" height="81" rx="31" stroke="none"/>
      <rect x="0.5" y="0.5" width="1699" height="80" rx="30.5" fill="none"/>
    </g>
    <text id="Jóvenes_en_Acción" data-name="Jóvenes en Acción" transform="translate(160 397)" font-size="24" font-family="MyriadPro-Light, Myriad Pro" font-weight="300"><tspan x="0" y="0">Jóvenes en Acción</tspan></text>
    <text id="Impacto_en_los_sec_.." data-name="Impacto en los sec….." transform="translate(428 398)" font-size="24" font-family="MyriadPro-Light, Myriad Pro" font-weight="300"><tspan x="0" y="0">Impacto en los sec…..</tspan></text>
    <text id="Alta" transform="translate(706 397)" font-size="24" font-family="MyriadPro-Light, Myriad Pro" font-weight="300"><tspan x="0" y="0">Alta</tspan></text>
    <text id="_15_02_21" data-name="15/02/21" transform="translate(842 397)" font-size="24" font-family="MyriadPro-Light, Myriad Pro" font-weight="300"><tspan x="0" y="0">15/02/21</tspan></text>
    <text id="_09_11_21" data-name="09/11/21" transform="translate(1066 397)" font-size="24" font-family="MyriadPro-Light, Myriad Pro" font-weight="300"><tspan x="0" y="0">09/11/21</tspan></text>
    <text id="Met.Expo" transform="translate(1254 397)" font-size="24" font-family="MyriadPro-Light, Myriad Pro" font-weight="300"><tspan x="0" y="0">Met.Expo</tspan></text>
    <text id="_1_2" data-name="1/2" transform="translate(1415 397)" font-size="24" font-family="MyriadPro-Light, Myriad Pro" font-weight="300"><tspan x="0" y="0">1/2</tspan></text>
    <path id="Icon_awesome-circle-notch" data-name="Icon awesome-circle-notch" d="M34.436,3.964V5.98a2.9,2.9,0,0,0,2.14,2.79,22.26,22.26,0,1,1-12.022,0,2.9,2.9,0,0,0,2.14-2.791V3.965a2.906,2.906,0,0,0-3.635-2.811A30,30,0,1,0,38.04,1.147,2.9,2.9,0,0,0,34.436,3.964Z" transform="translate(1565.435 359.866)" fill="#ff9f05"/>
    <text id="_75_" data-name="75%" transform="translate(1578.667 396.094)" font-size="20" font-family="MyriadPro-Light, Myriad Pro" font-weight="300"><tspan x="0" y="0">75%</tspan></text>
    <text id="Producción" transform="translate(1697 395)" font-size="24" font-family="MyriadPro-Light, Myriad Pro" font-weight="300"><tspan x="0" y="0">Producción</tspan></text>
  </g>
</svg>
